<?xml version="1.0" standalone="no"?>
<!DOCTYPE svg PUBLIC "-//W3C//DTD SVG 20010904//EN" "http://www.w3.org/TR/2001/REC-SVG-20010904/DTD/svg10.dtd">
<svg version="1.0" xmlns="http://www.w3.org/2000/svg"
 width="300.000000pt" height="351.000000pt" viewBox="0 0 300.000000 351.000000"
 preserveAspectRatio="xMidYMid meet">
<metadata>
Created by potrace 1.10, written by Peter Selinger 2001-2011
</metadata>
<g transform="translate(0.000000,351.000000) scale(0.100000,-0.100000)"
fill="#FFFFFF" fill-rule="evenodd" stroke="none">
<path d="M1470 3460 c-333 -18 -591 -114 -737 -273 -83 -91 -133 -216 -133
-331 0 -202 122 -364 310 -412 210 -53 428 89 480 315 36 152 -41 319 -182
396 -41 22 -69 30 -130 33 -91 5 -98 16 -42 67 84 77 301 130 447 108 175 -25
274 -111 317 -278 14 -53 16 -467 4 -678 -8 -124 -23 -157 -88 -191 l-40 -20
-85 23 c-378 102 -371 100 -488 101 -259 0 -498 -91 -673 -257 -129 -122 -188
-250 -197 -428 -14 -258 92 -474 304 -615 98 -65 178 -103 410 -189 410 -152
497 -209 540 -354 19 -65 13 -156 -14 -218 -86 -190 -365 -220 -619 -68 -189
114 -409 378 -533 639 -47 101 -91 218 -91 247 0 7 -9 13 -20 13 -20 0 -20 -7
-20 -495 0 -483 0 -495 19 -495 11 0 23 9 26 21 10 31 81 77 140 90 75 17 162
1 360 -66 207 -69 259 -82 380 -94 424 -39 808 184 915 532 80 259 28 542
-129 711 -110 118 -214 172 -536 278 -132 44 -272 95 -311 113 -173 83 -257
246 -211 406 31 103 108 164 230 179 203 25 429 -105 582 -335 71 -108 107
-181 154 -318 22 -63 48 -132 59 -153 52 -102 170 -194 307 -241 73 -25 93
-28 220 -28 157 1 230 18 312 77 76 55 153 200 153 288 0 18 4 29 10 25 6 -4
10 36 10 112 0 118 0 118 -24 118 -23 0 -24 -3 -30 -107 -15 -231 -98 -405
-189 -396 -64 6 -61 -20 -67 838 -5 725 -6 778 -24 825 -35 94 -66 145 -132
215 -194 205 -503 294 -944 270z m465 -69 c300 -67 482 -198 567 -409 l23 -57
5 -775 c3 -426 9 -784 14 -795 5 -11 20 -35 33 -53 14 -18 23 -35 21 -37 -2
-3 -33 -12 -69 -21 -83 -21 -249 -15 -329 14 -133 47 -235 121 -285 207 -13
22 -44 97 -68 167 -75 211 -161 354 -293 486 -46 45 -78 82 -71 82 7 0 49 -9
95 -21 96 -26 139 -19 196 32 69 60 69 65 74 459 4 381 -1 438 -49 531 -46 90
-159 177 -255 195 -19 3 -37 11 -41 17 -11 18 330 1 432 -22z m-865 -59 c-135
-90 -130 -174 10 -184 81 -6 133 -32 189 -93 104 -113 117 -248 38 -398 -37
-71 -81 -110 -167 -151 -55 -26 -76 -30 -140 -30 -106 2 -179 32 -251 103 -70
71 -100 142 -107 259 -5 88 14 162 61 242 61 103 180 198 311 246 72 27 90 29
56 6z m-170 -1076 c0 -2 -14 -19 -30 -37 -58 -65 -75 -115 -75 -214 0 -82 3
-97 33 -157 41 -83 118 -156 215 -202 40 -19 180 -70 312 -114 325 -107 427
-162 534 -285 195 -226 181 -654 -30 -891 -58 -64 -149 -132 -235 -175 -62
-30 -194 -74 -201 -67 -3 2 15 29 40 59 114 140 95 358 -41 478 -62 54 -222
130 -462 219 -298 111 -412 174 -522 287 -172 177 -218 470 -110 705 72 158
257 303 467 368 39 12 75 23 80 25 15 5 25 6 25 1z m-475 -1683 c88 -128 156
-207 267 -308 48 -43 86 -81 84 -83 -3 -2 -48 10 -101 28 -190 60 -310 62
-396 5 -20 -13 -40 -21 -43 -18 -8 9 -8 678 1 686 4 4 32 -41 63 -100 30 -60
87 -154 125 -210z"/>
</g>
</svg>
